HIERARCHY
ROOT hip
{
	OFFSET 0.000000 0.000000 0.000000 
	CHANNELS 6 Xposition Yposition Zposition Xrotation Zrotation Yrotation
	JOINT abdomen
	{
		OFFSET 0.000000 3.402643 0.000000 
		CHANNELS 3 Xrotation Zrotation Yrotation
		JOINT chest
		{
			OFFSET 0.000000 8.438565 -0.680529 
			CHANNELS 3 Xrotation Zrotation Yrotation
			JOINT neck
			{
				OFFSET 0.000000 10.207942 -0.272212 
				CHANNELS 3 Xrotation Zrotation Yrotation
				JOINT head
				{
					OFFSET 0.000000 3.130431 0.000000 
					CHANNELS 3 Xrotation Zrotation Yrotation
					End Site
					{
						OFFSET 0.000000 3.130435 0.000000 
					}
				}
			}
			JOINT lCollar
			{
				OFFSET 3.470700 6.669187 -0.816635 
				CHANNELS 3 Yrotation Zrotation Xrotation
				JOINT lShldr
				{
					OFFSET 3.198488 0.000000 0.000000 
					CHANNELS 3 Zrotation Yrotation Xrotation
					JOINT lForeArm
					{
						OFFSET 10.139888 0.000000 0.000000 
						CHANNELS 3 Yrotation Zrotation Xrotation
						JOINT lHand
						{
							OFFSET 8.370511 0.000000 0.000000 
							CHANNELS 3 Zrotation Yrotation Xrotation
							End Site
							{
								OFFSET 4.083176 0.000000 0.000000 
							}
						}
					}
				}
			}
			JOINT rCollar
			{
				OFFSET -3.470700 6.669187 -0.816635 
				CHANNELS 3 Yrotation Zrotation Xrotation
				JOINT rShldr
				{
					OFFSET -3.198488 0.000000 0.000000 
					CHANNELS 3 Zrotation Yrotation Xrotation
					JOINT rForeArm
					{
						OFFSET -10.139888 0.000000 0.000000 
						CHANNELS 3 Yrotation Zrotation Xrotation
						JOINT rHand
						{
							OFFSET -8.370511 0.000000 0.000000 
							CHANNELS 3 Zrotation Yrotation Xrotation
							End Site
							{
								OFFSET -4.083176 0.000000 0.000000 
							}
						}
					}
				}
			}
		}
	}
	JOINT lThigh
	{
		OFFSET 5.308129 -1.633274 1.361059 
		CHANNELS 3 Xrotation Zrotation Yrotation
		JOINT lShin
		{
			OFFSET -2.041588 -20.007561 0.000000 
			CHANNELS 3 Xrotation Zrotation Yrotation
			JOINT lFoot
			{
				OFFSET 0.000000 -19.190928 -1.224953 
				CHANNELS 3 Xrotation Yrotation Zrotation
				End Site
				{
					OFFSET 0.000000 -2.449906 4.627600 
				}
			}
		}
	}
	JOINT rThigh
	{
		OFFSET -5.308129 -1.633274 1.361059 
		CHANNELS 3 Xrotation Zrotation Yrotation
		JOINT rShin
		{
			OFFSET 2.041588 -20.007561 0.000000 
			CHANNELS 3 Xrotation Zrotation Yrotation
			JOINT rFoot
			{
				OFFSET 0.000000 -19.190928 -1.224953 
				CHANNELS 3 Xrotation Yrotation Zrotation
				End Site
				{
					OFFSET 0.000000 -2.449906 4.627600 
				}
			}
		}
	}
}
MOTION
Frames: 11
Frame Time: 0.033000
52.932346 40.417950 32.396263 26.966917 -15.740554 31.436567 23.451075 0.029249 1.458910 -20.839844 0.000000 0.000000 29.385670 -0.453932 5.983818 -2.520832 -1.255077 0.218355 -4.754609 -0.109184 -0.002653 -73.601601 9.349643 34.958839 -32.755375 -0.466091 -11.055715 17.873932 -14.140867 -1.422162 4.754609 0.109184 -0.002672 80.298592 6.527301 94.546204 97.804245 -0.490847 20.098660 31.516068 14.763524 4.010072 -69.511543 13.037344 0.308871 93.054543 0.302203 -15.429544 30.467113 -13.875330 -56.322792 -29.190651 -5.623147 -0.580532 29.803568 2.787888 -3.203022 -22.313177 -1.417403 3.485911 
56.796337 41.627235 36.398804 28.627197 -15.872584 31.917925 23.068665 -0.408582 1.512370 -20.839844 0.000000 0.000000 30.423964 0.704883 3.444416 -2.520832 -1.255077 0.218355 -4.754609 -0.109184 -0.002653 -74.597244 13.918382 29.205418 -33.190369 -0.499817 -13.511275 14.647462 -14.364918 -1.061052 4.754609 0.109184 -0.002672 77.466187 8.465990 94.652565 98.425575 -0.584901 23.081577 31.283838 16.349346 4.475937 -74.605095 11.903646 0.410751 81.450363 -0.507107 -12.718598 28.112925 -12.984704 -57.718273 -15.915046 -8.572252 -7.068978 11.712358 3.777174 2.080145 -8.918130 -0.589627 3.521417 
60.519180 42.837563 40.477501 29.262707 -17.169170 32.052040 22.764446 -0.668234 1.645914 -20.839844 0.000000 0.000000 31.513380 2.825042 2.047154 -2.520832 -1.255077 0.218355 -4.754609 -0.109184 -0.002653 -74.748802 17.641691 27.614744 -34.158260 -0.496885 -13.482209 12.369347 -14.426907 -0.847932 4.754609 0.109184 -0.002672 75.804054 10.017385 94.347916 99.133759 -0.664175 25.887560 30.175461 17.548096 4.680567 -75.190140 11.981722 -0.576247 63.034683 -1.811087 -9.379651 29.062813 -13.881125 -59.286587 -10.448858 -8.691051 -5.999495 5.298969 3.825405 1.265218 12.097994 0.689007 9.164966 
64.113014 43.669640 44.511559 28.529980 -18.376942 31.649904 22.762962 -0.802781 1.780083 -20.839844 0.000000 0.000000 32.928249 4.317256 1.943555 -2.520832 -1.255077 0.218355 -4.754609 -0.109184 -0.002653 -73.986778 20.678579 28.463491 -35.782608 -0.472361 -11.790672 11.568015 -14.572982 -0.833270 4.754609 0.109184 -0.002672 75.673271 11.470913 95.211945 100.021996 -0.673473 26.159086 28.593376 17.051817 4.301943 -69.700203 13.231606 -2.325832 37.385349 -3.181589 -4.214165 34.563507 -17.198933 -60.056488 -5.864179 -6.946539 -3.092566 4.498172 3.590755 -1.440536 21.984751 0.813860 4.886824 
67.807388 43.789459 48.454185 26.137760 -18.220398 30.630949 22.996180 -0.472959 2.587485 -20.839844 0.000000 0.000000 35.556835 4.351704 2.153575 -2.520832 -1.255077 0.218355 -4.754609 -0.109184 -0.002653 -73.157722 23.092978 30.163570 -37.103203 -0.465558 -10.444226 11.562563 -14.672087 -0.881954 4.754609 0.109184 -0.002672 76.091797 11.644705 97.028580 100.647369 -0.640382 24.799459 26.682983 16.181055 3.783964 -50.592834 16.024561 -0.612597 -5.476754 -3.241605 9.840472 53.019329 -25.090349 -52.907539 -10.211144 -4.803235 3.359003 26.892435 2.797821 -6.080383 18.589998 0.311012 4.065337 
71.615974 43.244720 52.379566 23.447962 -16.633278 30.107632 23.594112 -0.588886 2.425115 -20.839844 0.000000 0.000000 38.397404 3.532535 2.300709 -2.520832 -1.255077 0.218355 -4.754609 -0.109184 -0.002653 -73.046005 24.073122 31.170862 -36.934540 -0.466841 -11.058227 11.711249 -14.965747 -0.902359 4.754609 0.109184 -0.002672 76.303879 10.138877 98.319534 100.491417 -0.611762 24.091827 24.392139 16.601461 3.581876 -48.066395 17.382866 -1.150515 -5.505910 -3.465921 7.629403 47.243862 -23.345341 -56.156151 -14.254324 -3.808100 3.888538 50.948151 1.609694 -7.526036 14.820471 0.209936 4.080809 
75.473335 42.213615 56.245514 21.780787 -14.778494 29.627735 24.144478 -1.162968 1.465832 -20.839844 0.000000 0.000000 39.328060 2.793468 2.425299 -2.520832 -1.255077 0.218355 -4.754609 -0.109184 -0.002653 -74.084381 22.795115 30.822433 -35.546810 -0.498673 -13.780766 12.331991 -15.846386 -0.954164 4.754609 0.109184 -0.002672 75.863365 7.539593 97.469604 99.615211 -0.619272 24.370403 22.265146 17.717478 3.530898 -46.336205 17.001593 0.416042 3.094498 -4.375055 -2.215035 33.139217 -14.303666 -56.508789 -19.065601 -4.490904 2.545850 71.518646 0.331926 -6.330748 13.549706 -0.138560 3.043627 
79.314964 41.084023 59.904354 21.233212 -13.545860 28.392195 24.226761 -1.270230 1.117432 -20.839844 0.000000 0.000000 37.481888 2.577690 2.196934 -2.520832 -1.255077 0.218355 -4.754609 -0.109184 -0.002653 -75.618774 18.982805 30.222160 -35.345253 -0.532176 -16.763901 14.047100 -16.897116 -1.157170 4.754609 0.109184 -0.002672 74.434128 4.531620 93.567734 97.927704 -0.634948 24.737835 19.810335 17.812876 3.188149 -53.613174 13.045197 -6.206173 33.708672 -3.453595 -6.793252 1.759001 0.808573 -39.251644 -26.949211 -5.292148 1.809891 88.313660 -0.556965 -2.289396 13.068292 -0.246842 0.768191 
82.962143 40.247875 63.388027 21.619160 -12.925608 27.140575 24.103588 -1.324178 0.710505 -20.839844 0.000000 0.000000 33.674953 3.022291 1.511203 -2.520832 -1.255077 0.218355 -4.754609 -0.109184 -0.002653 -75.985199 12.591939 30.511465 -40.013569 -0.519496 -16.325880 16.001249 -16.267050 -1.328444 4.754609 0.109184 -0.002672 72.265739 1.287266 86.042625 94.711937 -0.635462 25.058643 15.857667 16.347267 2.355149 -51.736950 8.798640 -9.584127 45.294102 -2.639541 -4.593869 -12.542664 5.434525 -33.781742 -38.009647 -4.901659 1.532284 99.356056 -1.093455 2.329100 12.138191 -0.312872 -1.347065 
86.559578 40.212337 67.081444 22.073257 -13.470114 26.213608 23.811808 -1.194213 0.368314 -20.839844 0.000000 0.000000 29.458542 4.251276 0.883763 -2.520832 -1.255077 0.218355 -4.754609 -0.109184 -0.002653 -74.422073 3.573405 31.759157 -51.093872 -0.422094 -9.809801 15.131880 -12.280042 -0.917611 4.754609 0.109184 -0.002672 71.206947 -2.964527 74.261276 88.225655 -0.676861 26.897943 9.960690 14.230860 1.326663 -46.064693 6.523711 -10.743235 47.776562 -2.343629 -3.096332 -19.478556 7.221957 -31.629196 -49.477322 -2.284701 0.842738 100.914566 -1.200894 4.429503 10.591559 -0.186373 -1.252252 
90.389000 41.143936 71.199219 21.841890 -15.065621 26.043400 23.419760 -0.794596 0.112878 -20.839844 0.000000 0.000000 26.125010 6.278399 0.548663 -2.520832 -1.255077 0.218355 -4.754609 -0.109184 -0.002653 -72.999260 -7.645163 35.570923 -64.473404 -0.270454 -0.269246 9.658739 -8.039694 -0.317236 4.754609 0.109184 -0.002672 74.181618 -7.547383 58.013557 76.744125 -0.715082 28.910616 3.105047 11.423068 0.373068 -36.464348 4.345771 -16.258528 41.965427 -2.098623 4.458934 -17.541803 6.801074 -31.811842 -56.832733 1.093927 -0.219667 91.752266 -0.722546 3.966549 7.674179 -0.068397 0.875483 
